<?xml version="1.0" standalone="no"?>
<!DOCTYPE svg PUBLIC "-//W3C//DTD SVG 20010904//EN"
 "http://www.w3.org/TR/2001/REC-SVG-20010904/DTD/svg10.dtd">
<svg version="1.0" xmlns="http://www.w3.org/2000/svg"
 width="200.000000pt" height="200.000000pt" viewBox="0 0 200.000000 200.000000"
 preserveAspectRatio="xMidYMid meet">

<g transform="translate(0.000000,200.000000) scale(0.100000,-0.100000)"
fill="#000000" stroke="none">
<path d="M384 1880 c-81 -11 -131 -38 -186 -99 -78 -87 -76 -70 -80 -791 l-3
-635 23 -50 c27 -58 80 -117 137 -150 73 -43 132 -46 770 -43 l600 3 56 28
c66 32 132 99 162 165 22 47 22 52 22 692 l0 645 -26 56 c-33 71 -87 125 -158
158 l-56 26 -600 1 c-330 1 -628 -2 -661 -6z m998 -402 c195 -70 294 -323 202
-516 -24 -50 -72 -105 -267 -306 -132 -134 -252 -250 -268 -256 -64 -27 -79
-16 -341 248 -265 265 -286 293 -308 415 -21 112 23 250 106 333 66 67 134 97
230 102 97 5 163 -13 228 -63 l43 -33 29 24 c64 53 171 86 249 77 22 -2 66
-13 97 -25z"/>
<path d="M655 1447 c-61 -25 -94 -48 -134 -93 -99 -113 -112 -301 -29 -424 16
-25 132 -147 257 -272 194 -196 230 -228 256 -228 26 0 65 35 281 253 248 250
251 253 272 320 28 85 28 151 1 229 -26 78 -60 125 -122 172 -62 45 -113 59
-202 54 -80 -4 -146 -32 -195 -83 l-32 -33 -36 35 c-63 59 -107 76 -202 80
-52 1 -97 -2 -115 -10z m156 -188 c48 -17 92 -52 148 -119 l49 -59 38 47 c57
69 94 103 139 123 173 79 354 -106 274 -281 -25 -56 -44 -77 -91 -101 -62 -32
-117 -34 -176 -9 -29 13 -51 28 -49 34 5 12 6 12 67 -10 67 -24 122 -12 176
38 50 46 68 92 61 154 -13 121 -135 194 -245 148 -48 -20 -79 -49 -170 -164
-133 -168 -174 -202 -260 -216 -79 -13 -181 45 -222 125 -19 37 -17 140 4 180
50 94 161 142 257 110z m446 -70 c8 -8 16 -7 30 2 24 14 51 6 60 -18 4 -10 13
-23 22 -29 21 -16 21 -162 0 -178 -9 -6 -18 -19 -22 -29 -9 -24 -36 -33 -59
-18 -15 9 -23 9 -34 0 -21 -18 -63 -2 -70 26 -3 14 -10 25 -15 25 -5 0 -9 9
-9 20 0 11 -6 29 -12 40 -10 16 -10 24 -1 40 7 10 10 26 7 34 -7 19 54 96 76
96 9 0 21 -5 27 -11z m-212 -158 c7 -12 -12 -24 -25 -16 -11 7 -4 25 10 25 5
0 11 -4 15 -9z m26 -46 c-1 -15 -24 -12 -29 3 -3 9 2 13 12 10 10 -1 17 -7 17
-13z m35 -26 c8 -14 -18 -31 -30 -19 -9 9 0 30 14 30 5 0 12 -5 16 -11z m26
-51 c-15 -15 -26 -4 -18 18 5 13 9 15 18 6 9 -9 9 -15 0 -24z"/>
<path d="M675 1221 c-82 -37 -126 -123 -104 -203 23 -90 87 -141 174 -141 71
0 125 31 190 110 l54 66 -22 31 c-44 63 -122 132 -163 144 -56 16 -82 15 -129
-7z m180 -93 c14 -16 25 -38 25 -48 0 -23 -38 -69 -91 -111 l-40 -31 -39 27
c-73 51 -90 71 -90 110 0 24 8 43 24 60 21 21 33 23 105 23 77 0 82 -1 106
-30z"/>
<path d="M662 1118 c-26 -26 -14 -65 32 -102 23 -20 49 -36 56 -36 17 0 83 59
93 83 10 26 -17 67 -44 67 -11 0 -29 -5 -39 -10 -13 -7 -21 -7 -25 0 -9 14
-58 13 -73 -2z"/>
<path d="M1213 1164 c-4 -11 1 -22 13 -31 17 -12 19 -12 22 2 8 38 -22 62 -35
29z"/>
<path d="M1296 1173 c-3 -4 -6 -31 -6 -60 l0 -54 31 18 c31 18 46 39 36 49 -3
3 -17 -2 -31 -11 -28 -18 -36 -6 -11 15 8 7 15 18 15 25 0 14 -25 27 -34 18z"/>
<path d="M1182 1113 c2 -10 16 -24 31 -31 34 -17 26 -36 -9 -20 -19 9 -27 9
-37 -1 -16 -16 10 -33 33 -21 36 19 54 -38 24 -71 -18 -20 -11 -41 11 -32 11
4 15 24 15 82 0 74 -1 77 -29 94 -37 21 -43 21 -39 0z"/>
<path d="M1336 1067 c-16 -12 -16 -14 -2 -26 17 -14 36 -7 36 14 0 21 -15 26
-34 12z"/>
<path d="M1290 1026 c0 -15 4 -25 9 -22 5 3 14 -1 21 -9 16 -20 42 -19 38 1
-2 8 -6 14 -10 12 -3 -2 -18 8 -32 21 l-26 24 0 -27z"/>
<path d="M1198 1019 c-22 -12 -24 -39 -3 -39 16 0 29 22 23 39 -2 6 -9 6 -20
0z"/>
<path d="M1290 968 c0 -31 17 -45 33 -29 8 8 5 17 -11 33 l-22 22 0 -26z"/>
</g>
</svg>
